<svg width="28" height="28" viewBox="0 0 28 28" fill="none" xmlns="http://www.w3.org/2000/svg">
<path d="M11 13.25H14.375C15.4105 13.25 16.25 12.4105 16.25 11.375C16.25 10.3395 15.4105 9.5 14.375 9.5H11V13.25ZM18.5 16.625C18.5 18.489 16.989 20 15.125 20H9.5V8H14.375C16.239 8 17.75 9.51104 17.75 11.375C17.75 12.2782 17.3952 13.0986 16.8173 13.7043C17.8234 14.2885 18.5 15.3777 18.5 16.625ZM11 14.75V18.5H15.125C16.1605 18.5 17 17.6605 17 16.625C17 15.5895 16.1605 14.75 15.125 14.75H11Z" fill="#0A0D12"/>
</svg>
