<svg width="28" height="28" viewBox="0 0 28 28" fill="none" xmlns="http://www.w3.org/2000/svg">
<path d="M11 8.03711H20.75V9.53711H11V8.03711ZM8.375 9.91211C7.75368 9.91211 7.25 9.40843 7.25 8.78711C7.25 8.16579 7.75368 7.66211 8.375 7.66211C8.99632 7.66211 9.5 8.16579 9.5 8.78711C9.5 9.40843 8.99632 9.91211 8.375 9.91211ZM8.375 15.1621C7.75368 15.1621 7.25 14.6584 7.25 14.0371C7.25 13.4158 7.75368 12.9121 8.375 12.9121C8.99632 12.9121 9.5 13.4158 9.5 14.0371C9.5 14.6584 8.99632 15.1621 8.375 15.1621ZM8.375 20.3371C7.75368 20.3371 7.25 19.8334 7.25 19.2121C7.25 18.5908 7.75368 18.0871 8.375 18.0871C8.99632 18.0871 9.5 18.5908 9.5 19.2121C9.5 19.8334 8.99632 20.3371 8.375 20.3371ZM11 13.2871H20.75V14.7871H11V13.2871ZM11 18.5371H20.75V20.0371H11V18.5371Z" fill="#0A0D12"/>
</svg>
