<svg width="20" height="21" viewBox="0 0 20 21" fill="none" xmlns="http://www.w3.org/2000/svg">
<path d="M13.3333 5.67122V5.00456C13.3333 4.07114 13.3333 3.60443 13.1517 3.24791C12.9919 2.9343 12.7369 2.67934 12.4233 2.51955C12.0668 2.33789 11.6001 2.33789 10.6667 2.33789H9.33333C8.39991 2.33789 7.9332 2.33789 7.57668 2.51955C7.26308 2.67934 7.00811 2.9343 6.84832 3.24791C6.66667 3.60443 6.66667 4.07114 6.66667 5.00456V5.67122M8.33333 10.2546V14.4212M11.6667 10.2546V14.4212M2.5 5.67122H17.5M15.8333 5.67122V15.0046C15.8333 16.4047 15.8333 17.1048 15.5608 17.6395C15.3212 18.1099 14.9387 18.4924 14.4683 18.7321C13.9335 19.0046 13.2335 19.0046 11.8333 19.0046H8.16667C6.76654 19.0046 6.06647 19.0046 5.53169 18.7321C5.06129 18.4924 4.67883 18.1099 4.43915 17.6395C4.16667 17.1048 4.16667 16.4047 4.16667 15.0046V5.67122" stroke="#EE1D52" stroke-width="1.5" stroke-linecap="round" stroke-linejoin="round"/>
</svg>
