<svg width="28" height="28" viewBox="0 0 28 28" fill="none" xmlns="http://www.w3.org/2000/svg">
<path d="M17.8653 15.5C18.0384 15.8871 18.125 16.317 18.125 16.7897C18.125 17.7969 17.7322 18.5837 16.9465 19.1503C16.1607 19.7167 15.0751 20 13.6896 20C12.4601 20 11.2425 19.7139 10.0369 19.1416V17.4507C11.1765 18.1087 12.3431 18.4377 13.5367 18.4377C15.45 18.4377 16.4096 17.8884 16.4156 16.7897C16.4156 16.3204 16.2537 15.9198 15.9298 15.588C15.9004 15.5579 15.8704 15.5286 15.8398 15.5H7.25V14H20.75V15.5H17.8653ZM14.807 13.25H10.7218C10.5924 13.1325 10.4721 13.0019 10.3608 12.8584C10.0369 12.4406 9.875 11.9342 9.875 11.3391C9.875 10.412 10.2244 9.62375 10.9231 8.97425C11.6219 8.32474 12.703 8 14.1664 8C15.2701 8 16.3257 8.24606 17.3333 8.7382V10.3519C16.4336 9.83691 15.447 9.5794 14.3734 9.5794C12.514 9.5794 11.5844 10.1659 11.5844 11.3391C11.5844 11.6538 11.7478 11.9285 12.0747 12.1631C12.4016 12.3977 12.8049 12.5851 13.2847 12.7253C13.7499 12.8612 14.2573 13.0361 14.807 13.25Z" fill="#0A0D12"/>
</svg>
