<svg width="28" height="28" viewBox="0 0 28 28" fill="none" xmlns="http://www.w3.org/2000/svg">
<path d="M20 8.75H8V19.25L14.9692 12.2799C15.2621 11.987 15.7369 11.9869 16.0299 12.2798L20 16.2578V8.75ZM6.5 7.99505C6.5 7.58357 6.84148 7.25 7.24385 7.25H20.7561C21.167 7.25 21.5 7.58371 21.5 7.99505V20.0049C21.5 20.4164 21.1585 20.75 20.7561 20.75H7.24385C6.83304 20.75 6.5 20.4163 6.5 20.0049V7.99505ZM11 13.25C10.1716 13.25 9.5 12.5785 9.5 11.75C9.5 10.9216 10.1716 10.25 11 10.25C11.8284 10.25 12.5 10.9216 12.5 11.75C12.5 12.5785 11.8284 13.25 11 13.25Z" fill="#0A0D12"/>
</svg>
