<svg width="20" height="20" viewBox="0 0 20 20" fill="none" xmlns="http://www.w3.org/2000/svg">
<path d="M10.3789 3.18359H10.3799L10.3838 3.17676C10.4231 3.1176 10.5428 3.00623 10.7373 2.9375C10.9232 2.87191 11.0898 2.87575 11.208 2.91992L11.2236 2.92578L11.2383 2.93164C11.5994 3.05323 11.8263 3.48933 11.7637 3.78223L11.7578 3.80859L11.7539 3.83496L11.3203 6.55957L11.3164 6.58496C11.2477 7.10076 11.3874 7.60248 11.7061 7.99609L11.7207 8.01562L11.7373 8.03418C12.0602 8.395 12.5358 8.62492 13.0576 8.625H16.4824C16.8681 8.625 17.1053 8.7746 17.2227 8.93457H17.2236C17.3242 9.07777 17.3839 9.31273 17.2646 9.65137L17.2607 9.66113L17.2578 9.67188L15.208 15.9131L15.1963 15.9473L15.1875 15.9824C15.0485 16.5385 14.3498 17.1004 13.6582 17.1006H10.4082C10.2305 17.1006 9.99141 17.0672 9.76953 17.001C9.66141 16.9687 9.57183 16.9329 9.50488 16.8984C9.44314 16.8666 9.4177 16.845 9.41504 16.8428L9.37012 16.7979L9.31934 16.7588L8.25293 15.9346L8.24414 15.9268L8.18848 15.8799C8.06695 15.7623 7.99121 15.5908 7.99121 15.4082V6.94238C7.99121 6.81007 8.03068 6.67843 8.10449 6.56641L10.3789 3.18359Z" fill="#0093DD" stroke="#0093DD" stroke-width="2"/>
<path d="M3.4834 6.31641H4.3418C4.89517 6.31641 5.0304 6.43049 5.04492 6.44434C5.05154 6.45056 5.1582 6.55527 5.1582 7.0498V15.4326C5.1582 15.9364 5.04774 16.0364 5.04492 16.0391C5.03025 16.053 4.8948 16.166 4.3418 16.166H3.4834C2.93389 16.166 2.79725 16.0541 2.78125 16.0391C2.77844 16.0364 2.66699 15.9364 2.66699 15.4326V7.0498C2.66699 6.54598 2.77844 6.44702 2.78125 6.44434C2.79582 6.43045 2.93038 6.31644 3.4834 6.31641Z" fill="#0093DD" stroke="#0093DD" stroke-width="2"/>
</svg>
