<svg width="28" height="28" viewBox="0 0 28 28" fill="none" xmlns="http://www.w3.org/2000/svg">
<path d="M18.2429 16.1215L17.1822 15.0609L18.2429 14.0002C19.4145 12.8287 19.4145 10.9292 18.2429 9.75759C17.0713 8.58602 15.1718 8.58602 14.0002 9.75759L12.9396 10.8183L11.8789 9.75759L12.9396 8.69693C14.6969 6.93957 17.5461 6.93957 19.3035 8.69693C21.0609 10.4543 21.0609 13.3036 19.3035 15.0609L18.2429 16.1215ZM16.1215 18.2429L15.0609 19.3036C13.3035 21.0609 10.4543 21.0609 8.69693 19.3036C6.93957 17.5462 6.93957 14.6969 8.69693 12.9396L9.75759 11.8789L10.8182 12.9396L9.75759 14.0002C8.58601 15.1718 8.58601 17.0713 9.75759 18.2429C10.9292 19.4144 12.8286 19.4144 14.0002 18.2429L15.0609 17.1822L16.1215 18.2429ZM16.1215 10.8183L17.1822 11.8789L11.8789 17.1822L10.8182 16.1215L16.1215 10.8183Z" fill="#0A0D12"/>
</svg>
