<svg width="120" height="135" viewBox="0 0 120 135" fill="none" xmlns="http://www.w3.org/2000/svg">
<mask id="mask0_21416_4167" style="mask-type:luminance" maskUnits="userSpaceOnUse" x="0" y="0" width="82" height="127">
<path d="M0.9375 0H81.5156V126.9H0.9375V0Z" fill="white"/>
</mask>
<g mask="url(#mask0_21416_4167)">
<path d="M81.3913 8.54472L74.5464 0H0.960938V126.455H81.3913V8.54472Z" fill="#6FCFFF"/>
</g>
<mask id="mask1_21416_4167" style="mask-type:luminance" maskUnits="userSpaceOnUse" x="0" y="0" width="82" height="127">
<path d="M0.9375 0H81.5156V126.9H0.9375V0Z" fill="white"/>
</mask>
<g mask="url(#mask1_21416_4167)">
<mask id="mask2_21416_4167" style="mask-type:luminance" maskUnits="userSpaceOnUse" x="0" y="0" width="82" height="127">
<path d="M81.3913 8.54472L74.5464 0H0.960938V126.455H81.3913V8.54472Z" fill="white"/>
</mask>
<g mask="url(#mask2_21416_4167)">
<path d="M0.960938 0H81.3931V126.455H0.960938V0Z" fill="#0093DD"/>
</g>
</g>
<mask id="mask3_21416_4167" style="mask-type:luminance" maskUnits="userSpaceOnUse" x="9" y="8" width="111" height="127">
<path d="M9.51562 8.09961H119.062V135H9.51562V8.09961Z" fill="white"/>
</mask>
<g mask="url(#mask3_21416_4167)">
<path d="M119.04 135H9.51562V8.54492H97.1355L119.04 35.8859V135Z" fill="#E5F4FB"/>
</g>
<path d="M18.0723 35.8844C18.0723 34.9407 18.8372 34.1758 19.7809 34.1758H93.3734C94.317 34.1758 95.082 34.9407 95.082 35.8844C95.082 36.828 94.317 37.593 93.3734 37.593H19.7809C18.8372 37.593 18.0723 36.828 18.0723 35.8844Z" fill="#6FCFFF"/>
<path d="M18.0723 52.9742C18.0723 52.0306 18.8372 51.2656 19.7809 51.2656H93.3734C94.317 51.2656 95.082 52.0306 95.082 52.9742C95.082 53.9178 94.317 54.6828 93.3734 54.6828H19.7809C18.8372 54.6828 18.0723 53.9178 18.0723 52.9742Z" fill="#6FCFFF"/>
<path d="M18.0723 70.0641C18.0723 69.1204 18.8372 68.3555 19.7809 68.3555H93.3734C94.317 68.3555 95.082 69.1204 95.082 70.0641C95.082 71.0077 94.317 71.7727 93.3734 71.7727H19.7809C18.8372 71.7727 18.0723 71.0077 18.0723 70.0641Z" fill="#6FCFFF"/>
<path d="M18.0723 87.152C18.0723 86.2083 18.8372 85.4434 19.7809 85.4434H59.147C60.0907 85.4434 60.8556 86.2083 60.8556 87.152C60.8556 88.0956 60.0907 88.8605 59.147 88.8605H19.7809C18.8372 88.8605 18.0723 88.0956 18.0723 87.152Z" fill="#6FCFFF"/>
</svg>
