<svg width="28" height="28" viewBox="0 0 28 28" fill="none" xmlns="http://www.w3.org/2000/svg">
<path d="M18.2423 16.1219L17.1816 15.0612L18.2423 14.0006C19.4138 12.829 19.4138 10.9295 18.2423 9.75795C17.0707 8.58637 15.1712 8.58637 13.9996 9.75795L12.9389 10.8186L11.8783 9.75795L12.9389 8.69729C14.6963 6.93993 17.5456 6.93993 19.3029 8.69729C21.0602 10.4546 21.0602 13.3039 19.3029 15.0612L18.2423 16.1219ZM16.121 18.2433L15.0602 19.3039C13.3029 21.0612 10.4537 21.0612 8.69631 19.3039C6.93895 17.5465 6.93895 14.6973 8.69631 12.9399L9.75697 11.8793L10.8176 12.9399L9.75697 14.0006C8.5854 15.1722 8.5854 17.0717 9.75697 18.2433C10.9285 19.4148 12.828 19.4148 13.9996 18.2433L15.0602 17.1826L16.121 18.2433ZM16.121 10.8186L17.1816 11.8793L11.8783 17.1826L10.8176 16.1219L16.121 10.8186ZM9.33105 6.72026L10.7799 6.33203L11.5564 9.22981L10.1075 9.61804L9.33105 6.72026ZM16.4429 18.7714L17.8917 18.3831L18.6682 21.2809L17.2193 21.6692L16.4429 18.7714ZM6.71928 9.33203L9.61706 10.1085L9.22883 11.5574L6.33105 10.7809L6.71928 9.33203ZM18.7704 16.4438L21.6682 17.2203L21.2799 18.6692L18.3821 17.8927L18.7704 16.4438Z" fill="#0A0D12"/>
</svg>
